<?xml version="1.0" encoding="UTF-8"?>
<svg xmlns="http://www.w3.org/2000/svg" xmlns:xlink="http://www.w3.org/1999/xlink" width="127px" height="73px" viewBox="0 0 127 73" version="1.1">
<g id="surface1">
<path style=" stroke:none;fill-rule:nonzero;fill:rgb(0%,0%,0%);fill-opacity:1;" d="M 110.179688 11.367188 C 111.535156 11.503906 113.148438 11.902344 112.824219 12.023438 C 112.722656 12.058594 112.308594 12.023438 111.929688 11.9375 C 111.535156 11.832031 111.210938 11.832031 111.175781 11.902344 C 111.140625 11.972656 110.300781 12.074219 109.304688 12.109375 C 107.691406 12.179688 107.382812 12.246094 106.644531 12.679688 C 106.183594 12.953125 105.703125 13.28125 105.566406 13.402344 C 105.445312 13.539062 105.203125 13.59375 105.066406 13.539062 C 104.914062 13.488281 104.84375 13.488281 104.914062 13.558594 C 104.980469 13.628906 104.945312 13.78125 104.84375 13.921875 C 104.6875 14.09375 104.707031 14.144531 104.859375 14.144531 C 104.980469 14.144531 104.773438 14.367188 104.414062 14.644531 C 104.054688 14.921875 103.554688 15.316406 103.332031 15.523438 C 103.058594 15.800781 102.90625 15.851562 102.820312 15.714844 C 102.714844 15.558594 102.628906 15.578125 102.457031 15.785156 C 102.269531 16.007812 102.011719 16.042969 101.066406 15.9375 C 100.089844 15.851562 99.867188 15.871094 99.78125 16.09375 C 99.730469 16.230469 99.574219 16.40625 99.421875 16.457031 C 99.25 16.523438 99.335938 16.25 99.679688 15.609375 C 99.96875 15.09375 100.125 14.714844 100.039062 14.765625 C 99.746094 14.9375 98.835938 16.9375 98.921875 17.199219 C 98.972656 17.335938 98.957031 17.40625 98.871094 17.335938 C 98.613281 17.179688 98.167969 19.5625 97.980469 22.148438 C 97.875 23.476562 97.824219 26.203125 97.859375 28.203125 C 97.925781 31.238281 97.996094 31.996094 98.289062 32.894531 C 98.820312 34.535156 100.125 36.398438 100.808594 36.5 C 101.101562 36.535156 101.941406 37.085938 101.941406 37.242188 C 101.941406 37.3125 102.441406 37.550781 103.058594 37.792969 C 103.675781 38.019531 104.175781 38.257812 104.175781 38.328125 C 104.175781 38.519531 103.503906 38.5 102.800781 38.292969 C 102.476562 38.191406 101.925781 38.105469 101.582031 38.085938 C 100.894531 38.085938 99.816406 38.570312 99.96875 38.828125 C 100.039062 38.914062 99.988281 38.964844 99.867188 38.949219 C 99.558594 38.878906 98.683594 40.484375 98.597656 41.242188 C 98.5625 41.625 98.597656 41.917969 98.683594 41.917969 C 98.769531 41.917969 98.886719 42.089844 98.941406 42.296875 C 99.113281 42.832031 99.710938 43.46875 100.226562 43.675781 C 100.570312 43.796875 100.605469 43.867188 100.398438 43.984375 C 99.988281 44.261719 102.046875 44.191406 102.679688 43.917969 C 104.261719 43.246094 105.101562 40.96875 104.3125 39.449219 C 104.175781 39.171875 104.3125 39.15625 106.0625 39.15625 C 108.824219 39.15625 110.214844 38.898438 111.554688 38.15625 C 112.328125 37.742188 113.0625 37.484375 113.921875 37.363281 L 115.15625 37.171875 L 114.832031 36.535156 L 114.488281 35.914062 L 115.226562 34.757812 C 115.964844 33.652344 116.703125 31.910156 116.960938 30.722656 L 117.082031 30.152344 L 115.742188 30.273438 C 113.542969 30.460938 112.394531 30.410156 111.246094 30.117188 C 110.644531 29.945312 110.078125 29.839844 110.007812 29.875 C 109.921875 29.910156 109.597656 30.445312 109.273438 31.101562 C 108.945312 31.757812 108.808594 32.152344 108.980469 31.996094 C 109.304688 31.703125 109.546875 31.671875 109.976562 31.894531 C 110.128906 31.980469 110.628906 32.152344 111.089844 32.273438 C 111.535156 32.378906 111.898438 32.53125 111.898438 32.585938 C 111.898438 33.1875 110.234375 34.273438 109.082031 34.429688 C 107.882812 34.601562 107.175781 34.394531 106.421875 33.636719 C 105.152344 32.378906 104.84375 30.101562 105.1875 24.769531 C 105.496094 19.992188 105.855469 18.40625 106.921875 17.199219 C 107.195312 16.871094 107.382812 16.558594 107.332031 16.507812 C 107.28125 16.457031 107.382812 16.4375 107.554688 16.4375 C 107.726562 16.457031 107.847656 16.386719 107.828125 16.265625 C 107.796875 16.128906 107.898438 16.09375 108.070312 16.164062 C 108.222656 16.230469 108.308594 16.199219 108.242188 16.109375 C 108.121094 15.921875 110.609375 15.886719 110.800781 16.078125 C 110.988281 16.285156 110.78125 16.421875 110.027344 16.558594 C 109.597656 16.628906 109.273438 16.609375 109.132812 16.492188 C 109.015625 16.386719 109.117188 16.578125 109.339844 16.90625 C 109.5625 17.230469 109.871094 17.886719 110.042969 18.371094 C 110.320312 19.214844 110.351562 19.234375 111.160156 19.355469 C 112.242188 19.507812 114.179688 19.578125 116.121094 19.527344 L 117.679688 19.492188 L 117.542969 18.664062 C 117.304688 17.113281 117.027344 16.300781 116.839844 16.578125 C 116.71875 16.75 116.703125 16.730469 116.789062 16.457031 C 116.910156 15.992188 116.71875 15.488281 116.480469 15.644531 C 116.394531 15.695312 116.359375 15.664062 116.410156 15.558594 C 116.566406 15.316406 116.359375 14.816406 116.171875 14.9375 C 116.085938 14.988281 116.066406 14.921875 116.101562 14.800781 C 116.203125 14.523438 115.019531 13.058594 114.816406 13.195312 C 114.746094 13.246094 114.574219 13.144531 114.453125 12.972656 C 114.230469 12.695312 114.25 12.695312 114.558594 12.917969 C 114.746094 13.039062 114.644531 12.917969 114.335938 12.625 C 113.441406 11.832031 112.050781 11.367188 110.351562 11.296875 L 108.894531 11.230469 Z M 102.800781 15.957031 C 102.800781 16.179688 102.027344 17.765625 101.925781 17.765625 C 101.859375 17.765625 101.960938 17.335938 102.167969 16.816406 C 102.355469 16.300781 102.578125 15.871094 102.648438 15.871094 C 102.734375 15.871094 102.800781 15.902344 102.800781 15.957031 Z M 102.699219 40.984375 C 102.886719 41.503906 102.132812 42.019531 101.859375 41.570312 C 101.667969 41.277344 101.941406 40.707031 102.285156 40.707031 C 102.457031 40.707031 102.648438 40.828125 102.699219 40.984375 Z M 102.699219 40.984375 "/>
<path style=" stroke:none;fill-rule:nonzero;fill:rgb(0%,0%,0%);fill-opacity:1;" d="M 108.929688 11.679688 C 109.238281 11.710938 109.785156 11.710938 110.128906 11.679688 C 110.488281 11.644531 110.25 11.609375 109.582031 11.609375 C 108.929688 11.609375 108.636719 11.644531 108.929688 11.679688 Z M 108.929688 11.679688 "/>
<path style=" stroke:none;fill-rule:nonzero;fill:rgb(0%,0%,0%);fill-opacity:1;" d="M 73.109375 16.886719 C 73.109375 19.507812 73.058594 25.667969 72.992188 30.566406 L 72.886719 39.484375 L 71.667969 39.433594 C 71 39.398438 70.640625 39.414062 70.863281 39.449219 L 71.273438 39.535156 L 70.792969 39.847656 C 70.296875 40.175781 69.78125 40.140625 69.953125 39.777344 C 70.003906 39.675781 69.765625 39.898438 69.4375 40.261719 C 69.09375 40.640625 68.820312 41.035156 68.820312 41.175781 C 68.820312 41.832031 68.511719 41.191406 68.011719 39.535156 C 63.035156 22.527344 60.1875 12.832031 60.136719 12.78125 C 60.101562 12.746094 58.367188 12.695312 56.292969 12.679688 L 52.515625 12.644531 L 52.171875 13.78125 C 51.882812 14.78125 50.644531 19.179688 45.171875 38.585938 C 43.902344 43.105469 43.832031 43.296875 43.421875 43.3125 C 43.007812 43.347656 43.007812 43.347656 43.386719 43.417969 C 43.933594 43.519531 43.675781 43.8125 43.027344 43.8125 C 42.613281 43.8125 42.546875 43.761719 42.734375 43.640625 C 42.871094 43.554688 42.90625 43.46875 42.800781 43.46875 C 42.699219 43.46875 42.355469 43.640625 42.03125 43.867188 C 41.480469 44.226562 41.445312 44.332031 41.394531 45.347656 L 41.34375 46.4375 L 41.996094 46.332031 C 42.492188 46.246094 43.042969 46.367188 44.363281 46.832031 C 45.308594 47.175781 46.183594 47.488281 46.304688 47.523438 C 46.476562 47.589844 46.476562 47.675781 46.304688 47.988281 C 45.996094 48.574219 45.839844 50.195312 46.097656 50.195312 C 46.21875 50.195312 46.371094 50.351562 46.421875 50.542969 C 46.492188 50.75 46.800781 51.179688 47.128906 51.488281 C 47.46875 51.835938 47.625 52.09375 47.488281 52.09375 C 47.351562 52.09375 47.042969 51.78125 46.800781 51.421875 C 46.542969 51.042969 46.132812 50.628906 45.875 50.507812 C 45.546875 50.351562 45.375 50.128906 45.34375 49.800781 C 45.308594 49.472656 45.207031 49.332031 45.066406 49.386719 C 44.929688 49.4375 44.742188 49.28125 44.640625 49.058594 C 44.535156 48.816406 44.382812 48.660156 44.3125 48.710938 C 44.242188 48.746094 44.175781 48.644531 44.175781 48.453125 C 44.175781 48.28125 44.296875 48.125 44.449219 48.125 C 44.671875 48.125 44.671875 48.089844 44.449219 47.953125 C 44.277344 47.851562 44.089844 47.882812 43.867188 48.089844 C 43.625 48.316406 43.523438 48.332031 43.472656 48.160156 C 43.421875 48.058594 43.316406 47.953125 43.230469 47.953125 C 43.128906 47.953125 43.113281 48.058594 43.179688 48.160156 C 43.265625 48.28125 43.027344 48.125 42.683594 47.832031 C 42.320312 47.523438 41.824219 47.230469 41.566406 47.175781 C 41.308594 47.125 40.828125 46.988281 40.46875 46.882812 C 40.125 46.78125 39.628906 46.746094 39.351562 46.816406 C 39.09375 46.882812 38.667969 46.988281 38.410156 47.039062 C 38.132812 47.089844 37.929688 47.195312 37.929688 47.28125 C 37.929688 47.367188 37.773438 47.4375 37.585938 47.4375 C 37.277344 47.4375 37.15625 47.609375 37.226562 47.988281 C 37.226562 48.058594 37.054688 48.179688 36.8125 48.230469 C 36.554688 48.296875 36.261719 48.574219 36.09375 48.886719 C 35.953125 49.179688 35.699219 49.558594 35.542969 49.746094 C 35.285156 50.039062 35.300781 50.058594 35.765625 50.007812 L 36.261719 49.9375 L 36.230469 51.09375 C 36.210938 51.730469 36.261719 52.351562 36.367188 52.472656 C 36.46875 52.59375 36.777344 52.972656 37.070312 53.316406 C 37.34375 53.664062 37.585938 53.992188 37.585938 54.042969 C 37.585938 54.078125 37.378906 54.164062 37.140625 54.214844 C 36.8125 54.265625 36.675781 54.199219 36.554688 53.921875 C 36.488281 53.730469 36.195312 53.335938 35.902344 53.078125 L 35.40625 52.59375 L 33.621094 53.042969 C 32.640625 53.285156 31.542969 53.578125 31.199219 53.664062 C 30.738281 53.785156 30.460938 53.992188 30.273438 54.351562 C 29.863281 55.164062 30.035156 55.355469 31.011719 55.179688 C 31.457031 55.09375 32.640625 54.957031 33.636719 54.851562 C 34.632812 54.734375 35.714844 54.59375 36.039062 54.527344 C 36.382812 54.457031 37.171875 54.507812 37.929688 54.648438 C 39.285156 54.90625 40.535156 54.765625 41.550781 54.234375 C 41.980469 54.027344 43.421875 52.078125 43.421875 51.730469 C 43.421875 51.664062 43.867188 51.75 44.414062 51.9375 C 45.789062 52.421875 49.203125 52.714844 50.386719 52.457031 C 51.828125 52.128906 52.929688 50.730469 53.132812 48.917969 C 53.253906 47.851562 52.929688 46.675781 52.363281 46.160156 C 52.054688 45.882812 52.070312 45.816406 52.464844 44.28125 C 53.152344 41.65625 53.546875 40.363281 53.683594 40.363281 C 53.75 40.363281 55.109375 40.175781 56.6875 39.933594 C 58.28125 39.691406 59.636719 39.535156 59.722656 39.585938 C 59.792969 39.640625 59.949219 40.035156 60.050781 40.484375 C 60.222656 41.242188 60.203125 41.382812 59.808594 42.15625 C 59.242188 43.296875 59.261719 43.417969 60 43.332031 C 60.34375 43.277344 60.789062 43.332031 60.976562 43.433594 C 61.816406 43.867188 63.808594 44.347656 64.617188 44.347656 L 65.492188 44.347656 L 65.421875 45.433594 C 65.371094 46.28125 65.421875 46.644531 65.664062 47.023438 C 66.144531 47.796875 66.640625 48.316406 67.070312 48.488281 C 67.308594 48.574219 67.414062 48.730469 67.34375 48.851562 C 67.171875 49.125 69.179688 48.902344 69.816406 48.574219 C 70.074219 48.4375 70.554688 47.953125 70.863281 47.488281 C 71.1875 47.039062 71.480469 46.644531 71.496094 46.609375 C 71.515625 46.574219 71.753906 46.660156 72.046875 46.816406 C 72.320312 46.953125 72.9375 47.125 73.417969 47.195312 C 74.242188 47.296875 74.277344 47.28125 74.191406 46.9375 C 74.070312 46.488281 73.023438 45.539062 72.628906 45.539062 C 72.371094 45.523438 72.371094 45.503906 72.597656 45.316406 C 72.90625 45.074219 72.835938 44.332031 72.511719 44.332031 C 72.371094 44.332031 72.320312 44.210938 72.371094 44.003906 C 72.425781 43.796875 72.339844 43.660156 72.097656 43.589844 C 71.703125 43.484375 71.617188 43.796875 71.945312 44.125 C 72.097656 44.28125 72.097656 44.332031 71.960938 44.332031 C 71.839844 44.332031 71.703125 44.160156 71.652344 43.933594 C 71.378906 43.039062 70.261719 42.261719 69.25 42.261719 C 68.921875 42.261719 68.648438 42.191406 68.648438 42.105469 C 68.648438 42.035156 69.507812 41.882812 70.570312 41.777344 C 72.253906 41.605469 72.578125 41.605469 73.351562 41.863281 C 73.832031 42.035156 74.242188 42.175781 74.277344 42.191406 C 74.3125 42.210938 74.175781 42.554688 73.984375 42.96875 C 73.796875 43.382812 73.609375 43.933594 73.558594 44.175781 C 73.453125 44.78125 74.226562 46.332031 74.863281 46.796875 C 75.1875 47.039062 75.273438 47.195312 75.136719 47.28125 C 74.757812 47.523438 76.132812 47.644531 77.160156 47.453125 C 78.035156 47.296875 78.277344 47.160156 78.894531 46.488281 C 79.785156 45.523438 80.148438 44.191406 79.855469 43.070312 C 79.734375 42.675781 79.683594 42.332031 79.699219 42.296875 C 79.734375 42.277344 81.484375 42.019531 83.597656 41.761719 C 85.707031 41.484375 87.628906 41.175781 87.871094 41.089844 C 88.109375 41.003906 88.78125 40.554688 89.378906 40.121094 C 89.964844 39.691406 90.53125 39.328125 90.617188 39.328125 C 90.71875 39.328125 90.789062 39.242188 90.789062 39.121094 C 90.789062 39.019531 90.976562 38.691406 91.199219 38.398438 C 92.863281 36.191406 93.515625 32.101562 92.640625 29.375 C 92.332031 28.425781 92.074219 28.011719 91.269531 27.183594 L 90.273438 26.183594 L 90.855469 25.511719 C 92.179688 24.0625 92.933594 22.355469 93.105469 20.421875 C 93.414062 17.007812 92.109375 14.042969 89.757812 12.851562 C 88.265625 12.109375 87.714844 12.058594 80.214844 12.09375 L 73.109375 12.144531 Z M 84.660156 17.59375 C 84.902344 17.871094 85.191406 18.386719 85.296875 18.734375 C 85.554688 19.507812 85.433594 21.148438 85.074219 21.855469 L 84.796875 22.371094 L 85.726562 22.492188 C 87.679688 22.71875 88.109375 23.285156 86.324219 23.285156 C 85.175781 23.285156 84.523438 23.460938 85.003906 23.613281 C 85.691406 23.875 84.917969 24.132812 83.066406 24.304688 C 81.984375 24.390625 81.074219 24.441406 81.039062 24.40625 C 80.953125 24.320312 80.917969 22.613281 80.972656 19.890625 L 81.003906 17.265625 L 81.828125 17.199219 C 84.058594 17.023438 84.214844 17.042969 84.660156 17.59375 Z M 85.261719 17.230469 C 85.449219 17.335938 85.417969 17.386719 85.140625 17.472656 C 84.953125 17.527344 84.710938 17.457031 84.59375 17.320312 C 84.4375 17.128906 84.453125 17.078125 84.710938 17.078125 C 84.902344 17.078125 85.140625 17.144531 85.261719 17.230469 Z M 57.390625 30.875 C 58.28125 34.015625 58.109375 34.464844 55.914062 34.773438 C 55.28125 34.859375 55.089844 34.828125 55.089844 34.65625 C 55.089844 34.222656 56.53125 28.632812 56.652344 28.632812 C 56.703125 28.632812 57.046875 29.652344 57.390625 30.875 Z M 85.054688 29.445312 C 85.019531 29.496094 85.089844 29.789062 85.226562 30.101562 C 85.621094 31.066406 85.535156 32.84375 85.039062 33.84375 C 84.816406 34.308594 84.679688 34.65625 84.765625 34.601562 C 84.917969 34.5 86.839844 35.15625 87.097656 35.394531 C 87.199219 35.5 86.667969 35.535156 85.585938 35.5 L 83.90625 35.414062 L 84.507812 35.777344 C 85.191406 36.15625 85.261719 36.308594 84.832031 36.464844 C 84.300781 36.671875 81.023438 36.984375 80.886719 36.84375 C 80.679688 36.65625 80.730469 29.875 80.917969 29.6875 C 81.023438 29.601562 81.863281 29.445312 82.808594 29.375 C 84.421875 29.238281 85.246094 29.273438 85.054688 29.445312 Z M 76.027344 41.640625 C 75.925781 41.742188 75.71875 41.726562 75.480469 41.605469 C 75.101562 41.433594 75.117188 41.417969 75.632812 41.449219 C 75.992188 41.46875 76.132812 41.535156 76.027344 41.640625 Z M 77.882812 44.398438 C 77.8125 44.8125 77.246094 44.988281 77.039062 44.640625 C 76.835938 44.332031 76.851562 44.226562 77.160156 43.898438 C 77.503906 43.554688 77.949219 43.867188 77.882812 44.398438 Z M 69.59375 45.625 C 69.59375 46.023438 69.523438 46.140625 69.25 46.140625 C 68.890625 46.140625 68.71875 45.710938 68.890625 45.261719 C 69.078125 44.78125 69.59375 45.054688 69.59375 45.625 Z M 50.800781 48.558594 C 50.972656 48.765625 50.972656 48.917969 50.835938 49.246094 C 50.609375 49.714844 50.300781 49.800781 49.976562 49.472656 C 49.703125 49.195312 49.71875 48.902344 50.042969 48.574219 C 50.371094 48.230469 50.527344 48.230469 50.800781 48.558594 Z M 41.085938 50.472656 C 41.414062 50.800781 41.429688 50.902344 41.136719 51.300781 C 40.828125 51.714844 40.261719 51.59375 40.195312 51.09375 C 40.140625 50.695312 40.417969 50.195312 40.691406 50.195312 C 40.761719 50.195312 40.949219 50.316406 41.085938 50.472656 Z M 41.085938 50.472656 "/>
<path style=" stroke:none;fill-rule:nonzero;fill:rgb(0%,0%,0%);fill-opacity:1;" d="M 103.660156 14.230469 C 103.4375 14.472656 103.332031 14.660156 103.417969 14.660156 C 103.503906 14.660156 103.417969 14.78125 103.246094 14.921875 C 103.058594 15.058594 102.957031 15.214844 103.007812 15.28125 C 103.160156 15.421875 103.917969 14.628906 103.917969 14.316406 C 103.933594 14.179688 104.035156 14.074219 104.15625 14.109375 C 104.277344 14.128906 104.328125 14.074219 104.261719 13.972656 C 104.121094 13.746094 104.121094 13.730469 103.660156 14.230469 Z M 103.660156 14.230469 "/>
<path style=" stroke:none;fill-rule:nonzero;fill:rgb(0%,0%,0%);fill-opacity:1;" d="M 41.328125 34.535156 C 41.445312 34.6875 41.480469 34.859375 41.414062 34.894531 C 41.257812 35 38.785156 35.429688 37.328125 35.621094 C 35.472656 35.863281 34.03125 36.050781 33.464844 36.136719 C 33.140625 36.191406 31.972656 36.34375 30.890625 36.5 C 29.8125 36.65625 28.78125 36.84375 28.609375 36.929688 C 28.25 37.121094 27.886719 36.949219 27.097656 36.222656 C 25.539062 34.792969 23.046875 34.621094 22.398438 35.878906 C 22.019531 36.601562 22.070312 36.707031 22.824219 36.914062 C 23.1875 37.015625 23.546875 37.171875 23.597656 37.257812 C 23.648438 37.363281 23.890625 37.429688 24.113281 37.429688 C 24.335938 37.429688 24.972656 37.550781 25.519531 37.707031 C 27.75 38.328125 28.042969 38.328125 31.578125 37.777344 C 32.195312 37.691406 33.175781 37.570312 33.773438 37.5 C 34.359375 37.429688 34.839844 37.3125 34.839844 37.242188 C 34.839844 37.050781 33.621094 37.171875 30.753906 37.621094 C 28.335938 38 28.144531 38.019531 28.144531 37.777344 C 28.144531 37.671875 28.351562 37.605469 28.625 37.605469 C 28.882812 37.605469 29.949219 37.464844 30.976562 37.277344 C 32.023438 37.085938 33.828125 36.808594 35.011719 36.636719 C 36.195312 36.484375 37.585938 36.292969 38.101562 36.207031 C 38.613281 36.136719 39.472656 36.015625 39.988281 35.964844 C 40.503906 35.914062 41.207031 35.828125 41.53125 35.792969 C 42.046875 35.722656 42.066406 35.742188 41.703125 35.863281 L 41.273438 36.015625 L 41.753906 36.035156 C 42.011719 36.050781 42.21875 36.015625 42.21875 35.964844 C 42.21875 35.671875 41.703125 34.722656 41.429688 34.5 C 41.136719 34.257812 41.121094 34.257812 41.328125 34.535156 Z M 41.328125 34.535156 "/>
<path style=" stroke:none;fill-rule:nonzero;fill:rgb(0%,0%,0%);fill-opacity:1;" d="M 39.988281 36.242188 C 39.558594 36.308594 38.441406 36.464844 37.5 36.570312 C 35.507812 36.777344 35.011719 36.878906 35.011719 37.050781 C 35.011719 37.222656 36.949219 37.085938 37.15625 36.898438 C 37.242188 36.808594 37.707031 36.742188 38.1875 36.722656 C 39.128906 36.722656 40.914062 36.378906 41.121094 36.171875 C 41.273438 36.035156 41.050781 36.035156 39.988281 36.242188 Z M 39.988281 36.242188 "/>
<path style=" stroke:none;fill-rule:nonzero;fill:rgb(0%,0%,0%);fill-opacity:1;" d="M 95.421875 36.949219 C 94.871094 37.328125 94.046875 38.34375 94.046875 38.65625 C 94.046875 38.726562 94.1875 38.828125 94.359375 38.863281 C 94.511719 38.898438 94.359375 38.914062 93.996094 38.878906 C 92.539062 38.726562 91.078125 40.292969 90.925781 42.210938 C 90.890625 42.625 90.925781 42.953125 90.976562 42.953125 C 91.046875 42.953125 91.25 43.246094 91.421875 43.589844 C 91.613281 43.984375 91.953125 44.347656 92.28125 44.503906 C 92.589844 44.640625 92.8125 44.847656 92.761719 44.96875 C 92.710938 45.125 92.949219 45.140625 93.671875 45.074219 C 95.007812 44.953125 95.300781 44.8125 95.953125 44.003906 C 96.503906 43.3125 96.898438 43.140625 97.242188 43.453125 C 97.328125 43.539062 97.753906 43.675781 98.21875 43.78125 C 98.886719 43.917969 99.027344 43.898438 99.027344 43.691406 C 99.027344 43.367188 98.046875 42.433594 97.667969 42.433594 C 97.429688 42.417969 97.429688 42.398438 97.703125 42.191406 C 97.996094 41.96875 97.980469 41.933594 97.429688 41.726562 C 96.933594 41.554688 96.8125 41.417969 96.726562 40.898438 C 96.605469 40.070312 96.246094 39.605469 95.472656 39.226562 C 94.71875 38.847656 94.546875 38.898438 97.53125 38.726562 C 99.574219 38.585938 99.679688 38.519531 98.90625 37.605469 C 98.390625 36.984375 98.066406 36.828125 96.878906 36.671875 C 96.140625 36.570312 95.9375 36.601562 95.421875 36.949219 Z M 95.9375 37.070312 C 95.9375 37.328125 95.4375 37.636719 95.234375 37.5 C 95.078125 37.414062 95.113281 37.3125 95.335938 37.136719 C 95.714844 36.878906 95.9375 36.84375 95.9375 37.070312 Z M 94.976562 41.847656 C 95.09375 42.175781 94.804688 42.605469 94.476562 42.605469 C 94.203125 42.605469 94.03125 42.175781 94.152344 41.832031 C 94.289062 41.484375 94.839844 41.503906 94.976562 41.847656 Z M 94.976562 41.847656 "/>
<path style=" stroke:none;fill-rule:nonzero;fill:rgb(0%,0%,0%);fill-opacity:1;" d="M 116.703125 37.121094 C 116.375 37.34375 115.914062 37.863281 115.671875 38.292969 C 115.191406 39.121094 114.867188 40.535156 115.140625 40.535156 C 115.242188 40.535156 115.449219 40.8125 115.605469 41.15625 C 115.777344 41.519531 116.136719 41.882812 116.460938 42.054688 C 116.769531 42.191406 116.996094 42.382812 116.941406 42.46875 C 116.769531 42.726562 118.332031 42.605469 119.035156 42.277344 C 119.859375 41.898438 120.390625 41.226562 120.667969 40.175781 C 121.113281 38.5 120.375 37.207031 118.78125 36.914062 C 117.492188 36.671875 117.335938 36.691406 116.703125 37.121094 Z M 119.003906 39.984375 C 118.898438 40.140625 118.710938 40.277344 118.574219 40.277344 C 118.265625 40.277344 118.160156 39.726562 118.4375 39.398438 C 118.625 39.171875 118.675781 39.171875 118.917969 39.414062 C 119.121094 39.621094 119.140625 39.742188 119.003906 39.984375 Z M 119.003906 39.984375 "/>
<path style=" stroke:none;fill-rule:nonzero;fill:rgb(0%,0%,0%);fill-opacity:1;" d="M 38.273438 37.5 L 37.15625 37.691406 L 37.226562 41.742188 C 37.257812 43.96875 37.328125 45.847656 37.394531 45.917969 C 37.464844 45.988281 37.808594 45.96875 38.1875 45.867188 C 38.5625 45.761719 39.199219 45.726562 39.628906 45.78125 L 40.382812 45.882812 L 40.261719 44.574219 C 40.210938 43.832031 40.160156 41.898438 40.160156 40.242188 L 40.160156 37.257812 L 39.78125 37.277344 C 39.558594 37.292969 38.890625 37.378906 38.273438 37.5 Z M 38.273438 37.5 "/>
<path style=" stroke:none;fill-rule:nonzero;fill:rgb(0%,0%,0%);fill-opacity:1;" d="M 23.582031 38.207031 C 23.632812 38.363281 23.683594 39.105469 23.683594 39.847656 C 23.683594 41.3125 23.632812 41.242188 24.851562 41.484375 L 25.398438 41.605469 L 25.398438 40.035156 C 25.398438 38.3125 25.382812 38.277344 24.128906 38.050781 C 23.5625 37.949219 23.476562 37.964844 23.582031 38.207031 Z M 23.582031 38.207031 "/>
<path style=" stroke:none;fill-rule:nonzero;fill:rgb(0%,0%,0%);fill-opacity:1;" d="M 33.929688 38.171875 L 32.761719 38.328125 L 32.882812 40.519531 C 32.953125 41.710938 33.019531 42.710938 33.039062 42.726562 C 33.054688 42.761719 33.5 42.65625 34.050781 42.519531 C 34.582031 42.382812 35.25 42.261719 35.527344 42.261719 L 36.039062 42.261719 L 36.039062 37.949219 L 35.578125 37.964844 C 35.300781 37.984375 34.566406 38.070312 33.929688 38.171875 Z M 33.929688 38.171875 "/>
<path style=" stroke:none;fill-rule:nonzero;fill:rgb(0%,0%,0%);fill-opacity:1;" d="M 12.664062 38.757812 C 12.769531 38.792969 12.972656 38.792969 13.09375 38.757812 C 13.199219 38.707031 13.113281 38.671875 12.871094 38.671875 C 12.632812 38.671875 12.546875 38.707031 12.664062 38.757812 Z M 12.664062 38.757812 "/>
<path style=" stroke:none;fill-rule:nonzero;fill:rgb(0%,0%,0%);fill-opacity:1;" d="M 13.644531 38.914062 C 13.816406 39.105469 14.105469 39.171875 14.503906 39.121094 C 15.015625 39.070312 15.101562 39.105469 15.101562 39.414062 C 15.101562 39.882812 14.671875 41.054688 14.46875 41.210938 C 14.261719 41.347656 14.054688 42.125 14.261719 41.984375 C 14.449219 41.882812 14.46875 42.625 14.277344 42.863281 C 14.003906 43.246094 13.765625 43.070312 13.574219 42.382812 C 13.472656 41.984375 13.402344 41.503906 13.4375 41.328125 C 13.507812 40.949219 12.5625 39.96875 12.253906 40.089844 C 12.132812 40.140625 12.011719 40.089844 11.980469 39.984375 C 11.945312 39.882812 11.824219 39.847656 11.703125 39.914062 C 11.566406 40 11.601562 40.242188 11.84375 40.796875 C 12.082031 41.347656 12.117188 41.570312 11.960938 41.570312 C 11.84375 41.570312 11.894531 41.65625 12.066406 41.761719 C 12.253906 41.863281 12.355469 42.140625 12.355469 42.503906 C 12.355469 42.832031 12.476562 43.417969 12.613281 43.832031 C 12.820312 44.417969 12.835938 44.589844 12.664062 44.710938 C 12.527344 44.796875 12.699219 44.847656 13.09375 44.847656 C 13.867188 44.847656 14.398438 44.554688 14.296875 44.175781 C 14.261719 44.019531 14.46875 42.96875 14.742188 41.832031 C 15.53125 38.792969 15.496094 38.640625 14.039062 38.640625 C 13.421875 38.640625 13.386719 38.65625 13.644531 38.914062 Z M 13.644531 38.914062 "/>
<path style=" stroke:none;fill-rule:nonzero;fill:rgb(0%,0%,0%);fill-opacity:1;" d="M 26.222656 40.226562 L 26.273438 41.847656 L 27.132812 42.105469 C 28.09375 42.417969 28.007812 42.589844 27.972656 40.449219 C 27.957031 39.691406 27.886719 39.019531 27.820312 38.949219 C 27.75 38.878906 27.355469 38.757812 26.945312 38.707031 L 26.171875 38.605469 Z M 26.222656 40.226562 "/>
<path style=" stroke:none;fill-rule:nonzero;fill:rgb(0%,0%,0%);fill-opacity:1;" d="M 11.636719 38.933594 C 11.757812 38.984375 11.910156 38.964844 11.960938 38.914062 C 12.03125 38.863281 11.925781 38.8125 11.738281 38.828125 C 11.550781 38.828125 11.5 38.878906 11.636719 38.933594 Z M 11.636719 38.933594 "/>
<path style=" stroke:none;fill-rule:nonzero;fill:rgb(0%,0%,0%);fill-opacity:1;" d="M 112.136719 40.828125 C 111.605469 40.882812 111.398438 40.984375 111.332031 41.242188 C 111.28125 41.449219 111.089844 41.570312 110.800781 41.570312 C 110.542969 41.570312 110.285156 41.710938 110.179688 41.917969 C 110.007812 42.261719 110.042969 42.261719 112.328125 42.261719 C 113.820312 42.261719 114.644531 42.191406 114.644531 42.089844 C 114.644531 41.796875 113.835938 41.054688 113.527344 41.054688 C 113.390625 41.054688 113.269531 40.96875 113.269531 40.882812 C 113.269531 40.777344 113.167969 40.726562 113.0625 40.742188 C 112.945312 40.761719 112.515625 40.796875 112.136719 40.828125 Z M 112.136719 40.828125 "/>
<path style=" stroke:none;fill-rule:nonzero;fill:rgb(0%,0%,0%);fill-opacity:1;" d="M 18.605469 41.65625 C 18.464844 41.882812 18.378906 42.382812 18.398438 42.898438 L 18.433594 43.761719 L 19.308594 43.933594 C 19.925781 44.074219 20.199219 44.074219 20.304688 43.917969 C 20.492188 43.660156 20.320312 41.777344 20.078125 41.484375 C 19.769531 41.121094 18.894531 41.226562 18.605469 41.65625 Z M 18.605469 41.65625 "/>
<path style=" stroke:none;fill-rule:nonzero;fill:rgb(0%,0%,0%);fill-opacity:1;" d="M 25.140625 42.433594 C 24.953125 42.519531 24.542969 42.589844 24.25 42.589844 C 23.941406 42.605469 23.683594 42.675781 23.683594 42.777344 C 23.683594 42.882812 24.09375 42.898438 24.765625 42.847656 C 25.46875 42.761719 25.777344 42.796875 25.65625 42.898438 C 25.433594 43.140625 23.359375 43.746094 21.96875 43.984375 C 21.351562 44.089844 20.078125 44.398438 19.136719 44.675781 C 17.214844 45.246094 14.503906 45.710938 13.164062 45.710938 C 12.664062 45.710938 11.925781 45.816406 11.5 45.953125 C 10.742188 46.175781 10.710938 46.175781 10.109375 45.695312 C 9.765625 45.417969 9.335938 45.195312 9.148438 45.195312 C 8.667969 45.195312 8.03125 45.710938 8.136719 46.003906 C 8.1875 46.140625 8.167969 46.195312 8.066406 46.140625 C 7.636719 45.882812 7.378906 48.988281 7.707031 50.402344 C 7.792969 50.800781 7.792969 51.023438 7.707031 50.957031 C 7.535156 50.851562 6.691406 52.523438 6.691406 52.992188 C 6.691406 53.214844 6.832031 53.25 7.414062 53.179688 C 7.824219 53.144531 8.289062 53.078125 8.460938 53.042969 C 8.632812 53.007812 8.871094 53.164062 9.042969 53.40625 C 9.472656 54.078125 10.246094 54.371094 11.773438 54.472656 L 13.179688 54.558594 L 12.921875 55.265625 C 12.769531 55.714844 12.699219 56.285156 12.769531 56.785156 C 12.835938 57.441406 12.804688 57.648438 12.5625 57.769531 C 11.980469 58.0625 9.75 58.511719 9.300781 58.425781 C 8.871094 58.339844 8.839844 58.371094 8.855469 58.871094 C 8.871094 59.355469 8.957031 59.460938 9.542969 59.667969 C 10.195312 59.890625 14.003906 60.234375 16.390625 60.253906 C 18.777344 60.285156 20.320312 59.269531 21.109375 57.164062 C 21.675781 55.628906 21.554688 54.320312 20.730469 53.09375 L 20.40625 52.628906 L 21.074219 52.457031 C 22.757812 51.988281 26.464844 51.386719 27.5625 51.386719 L 28.78125 51.386719 L 28.710938 49.28125 C 28.660156 48.125 28.558594 46.953125 28.472656 46.675781 C 28.386719 46.402344 28.367188 45.78125 28.402344 45.296875 C 28.488281 44.589844 28.4375 44.332031 28.164062 43.984375 C 27.835938 43.589844 27.800781 43.589844 27.800781 43.898438 C 27.800781 44.191406 27.769531 44.191406 27.511719 43.8125 C 27.355469 43.574219 27.066406 43.246094 26.894531 43.070312 C 26.703125 42.917969 26.617188 42.777344 26.703125 42.761719 C 26.859375 42.761719 25.761719 42.296875 25.570312 42.277344 C 25.519531 42.277344 25.332031 42.347656 25.140625 42.433594 Z M 28.09375 44.882812 C 28.042969 45.019531 27.992188 44.96875 27.992188 44.78125 C 27.972656 44.589844 28.027344 44.488281 28.078125 44.554688 C 28.128906 44.605469 28.144531 44.761719 28.09375 44.882812 Z M 7.910156 48.386719 C 7.792969 49.523438 7.757812 49.609375 7.738281 48.902344 C 7.722656 48.003906 7.910156 46.539062 8.015625 46.832031 C 8.03125 46.9375 7.996094 47.625 7.910156 48.386719 Z M 9.953125 46.917969 C 9.953125 47.003906 9.886719 47.089844 9.800781 47.089844 C 9.695312 47.089844 9.578125 47.003906 9.523438 46.917969 C 9.472656 46.816406 9.542969 46.746094 9.679688 46.746094 C 9.832031 46.746094 9.953125 46.816406 9.953125 46.917969 Z M 9.523438 47.265625 C 9.578125 47.351562 9.507812 47.4375 9.371094 47.4375 C 9.234375 47.4375 9.0625 47.351562 9.011719 47.265625 C 8.957031 47.160156 9.027344 47.089844 9.164062 47.089844 C 9.300781 47.089844 9.472656 47.160156 9.523438 47.265625 Z M 18.535156 55.699219 C 18.742188 56.113281 18.605469 56.527344 18.15625 56.769531 C 17.746094 56.992188 17.332031 56.699219 17.332031 56.164062 C 17.332031 55.40625 18.191406 55.078125 18.535156 55.699219 Z M 18.535156 55.699219 "/>
<path style=" stroke:none;fill-rule:nonzero;fill:rgb(0%,0%,0%);fill-opacity:1;" d="M 87.699219 43.46875 C 87.371094 43.554688 87.082031 43.691406 87.046875 43.796875 C 87.011719 43.898438 86.804688 43.984375 86.601562 43.984375 C 86.171875 43.984375 85.5 44.605469 85.707031 44.8125 C 85.828125 44.933594 90.289062 44.902344 90.410156 44.761719 C 90.597656 44.589844 90.171875 43.917969 89.707031 43.625 C 89.125 43.277344 88.675781 43.246094 87.699219 43.46875 Z M 87.699219 43.46875 "/>
<path style=" stroke:none;fill-rule:nonzero;fill:rgb(0%,0%,0%);fill-opacity:1;" d="M 62.042969 47.417969 C 60.308594 47.867188 59.914062 48.058594 59.722656 48.558594 C 59.5 49.144531 59.5 49.144531 59.878906 49.074219 C 60.066406 49.039062 61.304688 48.953125 62.625 48.886719 C 64.855469 48.78125 65.042969 48.746094 65.042969 48.4375 C 65.042969 47.972656 64.117188 47.089844 63.636719 47.109375 C 63.414062 47.109375 62.710938 47.265625 62.042969 47.417969 Z M 62.042969 47.417969 "/>
</g>
</svg>
